# xmcd
#
# Track frame offsets:
#	150
#	17025
#	36311
#	57329
#	77279
#	99217
#	117208
#	145033
#	163474
#	187099
#	209524
#
# Disc length: 3735 seconds
# Revision: 0
# Processed by: cddbd v1.5.2PL0 Copyright (c) Steve Scherf et al.
# Submitted via: dBpowerAMP V12.0
#
DISCID=930e950b
DTITLE=Martin Messent - Saw The Sun
DYEAR=2006
DGENRE=Blues
TTITLE0=Saw the Sun
TTITLE1=Things Are
TTITLE2=Things to Say
TTITLE3=Moonish Eyes
TTITLE4=Broken Door
TTITLE5=Time, Listening and Stillness
TTITLE6=Rocket
TTITLE7=Bye Bye Blackbird
TTITLE8=Black Heart
TTITLE9=Stop Now
TTITLE10=Your Light
EXTD=
EXTT0=
EXTT1=
EXTT2=
EXTT3=
EXTT4=
EXTT5=
EXTT6=
EXTT7=
EXTT8=
EXTT9=
EXTT10=
PLAYORDER=
